<?xml version="1.0" encoding="utf-8"?>
<!-- Generator: Adobe Illustrator 28.2.0, SVG Export Plug-In . SVG Version: 6.00 Build 0)  -->
<svg version="1.1" id="Layer_1" xmlns="http://www.w3.org/2000/svg" xmlns:xlink="http://www.w3.org/1999/xlink" x="0px" y="0px"
	 viewBox="0 0 252 144" style="enable-background:new 0 0 252 144;" xml:space="preserve">
<style type="text/css">
	.st0{fill:none;}
	.st1{fill:#FFFFFF;}
	.st2{fill:url(#SVGID_1_);}
	.st3{fill:url(#SVGID_00000029737339975185728840000016133849198832841612_);}
	.st4{fill:url(#SVGID_00000134241256096961587430000011241574295542881201_);}
	.st5{fill:url(#SVGID_00000105390395083914847110000013508239613982256530_);}
	.st6{fill:url(#SVGID_00000116210695442103485970000011770550286531579023_);stroke:#E7B922;stroke-miterlimit:10;}
	.st7{font-family:'Gruppo-Regular';}
	.st8{font-size:9px;}
	.st9{letter-spacing:1;}
	.st10{font-size:5px;}
</style>
<path class="st0" d="M27.15,68.69"/>
<circle class="st1" cx="128.34" cy="61.5" r="42.55"/>
<g>
	<g>
		<linearGradient id="SVGID_1_" gradientUnits="userSpaceOnUse" x1="160.1028" y1="89.5518" x2="87.1759" y2="16.6249">
			<stop  offset="0" style="stop-color:#FFFFFF"/>
			<stop  offset="1" style="stop-color:#E7B922"/>
		</linearGradient>
		<path class="st2" d="M129.43,60.17c-0.18,0.16-0.35,0.32-0.52,0.5l0.54-0.43l2.02-1.64"/>
		
			<linearGradient id="SVGID_00000127725064744339282200000008920080298954946434_" gradientUnits="userSpaceOnUse" x1="158.6398" y1="91.0149" x2="85.7128" y2="18.088">
			<stop  offset="0" style="stop-color:#FFFFFF"/>
			<stop  offset="0.2254" style="stop-color:#E7B922"/>
		</linearGradient>
		<path style="fill:url(#SVGID_00000127725064744339282200000008920080298954946434_);" d="M150.25,85.83
			c-0.35,0.29-0.99,0.68-1.93,1.17c-0.93,0.49-2.08,0.92-3.44,1.3c-1.35,0.37-2.85,0.54-4.5,0.51c-2.51-0.05-4.75-0.51-6.72-1.36
			c-1.98-0.85-3.65-2.01-5.02-3.48c-1.37-1.47-2.42-3.16-3.14-5.06c-0.72-1.91-1.08-3.94-1.08-6.1c0-2.32,0.34-4.44,1-6.38
			c0.03-0.1,0.07-0.19,0.1-0.29c0.16-0.43,0.33-0.85,0.52-1.25l4.02-3.26l6.11-4.96c1.18-0.26,2.43-0.39,3.74-0.39
			c2.13,0,4.02,0.29,5.67,0.86c1.64,0.58,2.98,1.2,4.02,1.86l-2.47,5.93c-0.72-0.55-1.68-1.12-2.87-1.71
			c-1.2-0.59-2.58-0.89-4.14-0.89c-1.21,0-2.37,0.26-3.48,0.76c-1.11,0.51-2.09,1.22-2.94,2.14c-0.85,0.93-1.52,2-2.01,3.23
			c-0.49,1.22-0.74,2.56-0.74,4c0,1.53,0.22,2.93,0.67,4.2c0.45,1.27,1.09,2.35,1.93,3.26c0.83,0.91,1.84,1.61,3,2.1
			c1.17,0.49,2.49,0.74,3.96,0.74c1.71,0,3.16-0.28,4.37-0.82c1.22-0.55,2.14-1.13,2.77-1.74L150.25,85.83z"/>
	</g>
	
		<linearGradient id="SVGID_00000020371344508226017280000016873260511921214395_" gradientUnits="userSpaceOnUse" x1="159.3403" y1="90.3143" x2="86.4134" y2="17.3874">
		<stop  offset="0" style="stop-color:#FFFFFF"/>
		<stop  offset="1" style="stop-color:#E7B922"/>
	</linearGradient>
	<polygon style="fill:url(#SVGID_00000020371344508226017280000016873260511921214395_);" points="154.88,41.51 136.17,56.67 
		130.06,61.63 126.04,64.89 124.7,65.97 105.78,81.31 104.86,80.17 124.14,64.54 128.89,60.69 128.91,60.67 129.45,60.24 
		131.47,58.6 153.96,40.37 	"/>
</g>
<g>
	<g>
		
			<linearGradient id="SVGID_00000104681633394182622320000010457050278336549273_" gradientUnits="userSpaceOnUse" x1="118.4228" y1="53.9664" x2="129.8884" y2="60.6193">
			<stop  offset="0" style="stop-color:#E7B922"/>
			<stop  offset="1" style="stop-color:#F1F2F2"/>
		</linearGradient>
		<path style="fill:url(#SVGID_00000104681633394182622320000010457050278336549273_);" d="M121.19,53.64h-9.56l-1.95,5.27h13.72
			L121.19,53.64z M128.17,58.88l-0.61-1.39l-11.04-25.44h-0.35l-14.36,33.09H108l2.59-6.23l2.2-5.27l3.23-7.76l3.06,7.76l2.08,5.27
			l1.13,2.85l0.59,1.49l4.75-3.85l0.02-0.02l0.54-0.43L128.17,58.88z"/>
	</g>
	
		<linearGradient id="SVGID_00000113317213798029439480000013612307716300564618_" gradientUnits="userSpaceOnUse" x1="119.6591" y1="53.2576" x2="131.1247" y2="59.9105">
		<stop  offset="0" style="stop-color:#E7B922"/>
		<stop  offset="1" style="stop-color:#F1F2F2"/>
	</linearGradient>
	
		<polygon style="fill:url(#SVGID_00000113317213798029439480000013612307716300564618_);stroke:#E7B922;stroke-miterlimit:10;" points="
		153.52,39.08 131.03,57.31 129.01,58.95 128.47,59.38 128.45,59.4 123.7,63.25 104.42,78.88 103.45,77.69 123.11,61.76 
		128.38,57.49 152.56,37.89 	"/>
</g>
<path class="st0" d="M74.97,36.15"/>
<path class="st0" d="M78.41,33.37"/>
<text transform="matrix(1 0 0 1 65.8734 113.3218)" class="st1 st7 st8 st9">ALTAMASH CHANDIWALA</text>
<text transform="matrix(1 0 0 1 107.6484 121.0947)" class="st1 st7 st10">WEB DEVELOPER</text>
</svg>
